<?xml version="1.0" encoding="UTF-8"?><svg xmlns="http://www.w3.org/2000/svg" viewBox="0 0 471.1 148.34"><defs><style>.d{fill:none;opacity:.3;}.e{fill:#fff;}.f{fill:#1649a2;}.g{fill:#363636;}</style></defs><g id="a"/><g id="b"><g id="c"><g><rect class="d" width="471.1" height="148.34"/><g><g><path class="g" d="M208.6,77.57c0,9.2-6.3,15-13.9,15-3.7,0-7.1-1.4-9.3-3.5v13.7h-7.2V63.27h7.3v2.8c2.2-2.1,5.5-3.5,9.2-3.5,7.6,.1,13.9,5.8,13.9,15Zm-7.1,0c-.1-5.5-4-8.9-8.4-8.9-2.6,0-5.6,1.2-7.7,3.2l-.1,11.4c2.1,2,5,3.2,7.7,3.2,4.5,0,8.5-3.3,8.5-8.9Z"/><path class="g" d="M236.3,63.27h7.3v28.6h-7.3v-2.9c-2.2,2.1-5.6,3.5-9.2,3.5-7.6,0-14-5.8-14-15s6.4-15,14-15c3.6,0,7.1,1.4,9.2,3.5v-2.7Zm0,20v-11.4c-2.1-2-5-3.2-7.7-3.2-4.5,0-8.3,3.4-8.4,8.9,.1,5.5,3.9,8.9,8.4,8.9,2.7,0,5.6-1.2,7.7-3.2Z"/><path class="g" d="M269.4,62.67v7.8c-.6-.2-2-.3-2.9-.3-1.8,0-4.8,.4-7.4,2.5v19.3h-7.2v-28.6h7.2v4.9c2.1-2.9,5.5-5.6,9.4-5.6,.3,0,.7,0,.9,0Z"/><path class="g" d="M272.2,77.57c0-9,6.9-15,15.8-15,2.8,0,5.6,.6,7.8,1.7v6.6h-.4c-1.8-1.5-4.5-2.2-6.8-2.2-5.1,0-9.3,3.5-9.3,8.8s4.2,8.8,9.3,8.8c2.2,0,5-.8,6.8-2.2h.3v6.6c-2.2,1.1-5,1.7-7.8,1.7-8.7,.2-15.7-5.8-15.7-14.8Z"/><path class="g" d="M329.4,73.87v18h-7.2v-17.1c0-3.8-2.2-5.9-5.6-5.9-2.6,0-5.2,1.5-6.9,3.9v19.2h-7.3V49.97h7.2v17c2.1-2.5,5.6-4.2,9.2-4.2,6.1-.1,10.6,3.8,10.6,11.1Z"/><path class="g" d="M363.1,76.87c0,.6-.1,1.3-.1,1.8h-20.8c.6,5.2,4.1,8.1,9.2,8.1,3,0,7.1-1,10-2.2v5.6c-2.4,1.3-6.8,2.4-10.8,2.4-9.7,0-15.2-6.6-15.2-15.2,0-9.2,6.2-14.7,14.4-14.7,8.6,0,13.4,6,13.3,14.2Zm-20.5-2.8h13.8c-.5-3.6-2.8-5.8-6.5-5.8-3.7,.1-6.4,2.3-7.3,5.8Z"/><path class="g" d="M390.9,63.27h7.1v24.4c-.1,9.6-6.5,15.7-16.1,15.7-3.9,0-8.6-1-11.8-2.4v-5.9c2.9,1.5,7.4,2.5,11.2,2.5,5.7,0,9.4-3.2,9.6-8.9-2.2,2.2-5.7,3.6-9.5,3.6-7.6,0-14-5.6-14-14.8s6.4-15,14-15c3.8,0,7.3,1.5,9.5,3.7v-2.9Zm-7.9,23.2c2.7,0,5.8-1.3,7.9-3.4v-11c-2.1-2.1-5.2-3.4-7.9-3.4-4.5,0-8.3,3.4-8.4,8.9,.1,5.6,3.9,8.9,8.4,8.9Z"/><path class="g" d="M427.7,63.27h7.1v24.4c-.1,9.6-6.5,15.7-16.1,15.7-3.9,0-8.6-1-11.8-2.4v-5.9c2.9,1.5,7.4,2.5,11.2,2.5,5.7,0,9.4-3.2,9.6-8.9-2.2,2.2-5.7,3.6-9.5,3.6-7.6,0-14-5.6-14-14.8s6.4-15,14-15c3.8,0,7.3,1.5,9.5,3.7v-2.9Zm-7.8,23.2c2.7,0,5.8-1.3,7.9-3.4v-11c-2.1-2.1-5.2-3.4-7.9-3.4-4.5,0-8.3,3.4-8.4,8.9,0,5.6,3.9,8.9,8.4,8.9Z"/><path class="g" d="M442.1,53.67c0-2.5,2-4.3,4.5-4.3s4.5,1.8,4.5,4.3-2,4.3-4.5,4.3-4.5-1.8-4.5-4.3Zm.9,38.2v-28.6h7.2v28.6h-7.2Z"/></g><g><path class="f" d="M20.1,74.17h0c0,13.7,5.1,26.2,13.5,35.8l20.6-35.8H20.1Z"/><path class="f" d="M74.1,20.17c-26.9,0-49.3,19.7-53.3,45.5H127.4c-4.1-25.7-26.4-45.5-53.3-45.5Z"/><path class="f" d="M63.9,74.17l-24.1,41.8c7.9,6.5,17.7,10.8,28.4,11.9l31-53.7H63.9Z"/><path class="f" d="M77.8,128.07c28.1-1.9,50.3-25.3,50.3-53.9h-19.2l-31.1,53.9Z"/><path class="e" d="M20.7,65.77c-.4,2.7-.7,5.6-.7,8.4H54.1l-20.6,35.8c1.9,2.2,4,4.2,6.3,6l24.1-41.8h35.2l-31,53.7c1.9,.2,3.9,.3,5.9,.3,1.3,0,2.5,0,3.7-.1l31.1-53.9h19.2c0-2.9-.2-5.7-.7-8.4H20.7Z"/></g></g></g></g></g></svg>